Another Fine Release Brought to you from - IMAGiNE 





******************************************************************************************************************** 

Big Mommas Like Father Like Son 2011 TS XViD - IMAGiNE

********************************************************************************************************************



Ripper ...........:IMAGiNE IMDB Rating.......:2.7/10 

Video Codec.......:XVID Release Date......:18/02/11

Audio Codec.......:MP3 Theatre Date......:20/02/11

Audio Bitrate.....:128 Runtime...........:1h 39mn

Subtitles.........:NIL Language..........:ENGLISH

Resolution........:656 x 368 IMDb URL.......... http://www.imdb.com/title/tt1464174/





DETAILS:



Video

ID : 0

Format : MPEG-4 Visual

Format profile : Advanced Simple@L5

Format settings, BVOP : Yes

Format settings, QPel : No

Format settings, GMC : No warppoints

Format settings, Matrix : Default (MPEG)

Muxing mode : Packed bitstream

Codec ID : XVID

Codec ID/Hint : XviD

Duration : 1h 39mn

Bit rate : 1 844 Kbps

Width : 656 pixels

Height : 368 pixels

Display aspect ratio : 16:9

Frame rate : 25.000 fps

Color space : YUV

Chroma subsampling : 4:2:0

Bit depth : 8 bits

Scan type : Progressive

Bits/(Pixel*Frame) : 0.306

Stream size : 1.28 GiB (93%)

Writing library : XviD 61



Audio

ID : 1

Format : MPEG Audio

Format version : Version 1

Format profile : Layer 3

Codec ID : 55

Codec ID/Hint : MP3

Duration : 1h 39mn

Bit rate mode : Constant

Bit rate : 128 Kbps

Channel(s) : 2 channels

Sampling rate : 44.1 KHz

Stream size : 91.3 MiB (6%)

Alignment : Split accross interleaves

Interleave, duration : 40 ms (1.00 video frame)

Interleave, preload duration : 500 ms





SOURCES:



VIDEO: CiNEDUB...Thanks 

AUDIO: Thanks matey 



NOTES:



IMAGiNE bringing you another release.......... Big Mommas 2011







Here we are with a nice encode of this one for you all. Now for the video we just made a script

containing white balance,resize, rgb eq, sharpness, chroma, brightness, contrast ect. With the audio

it was just a matter of syncing it to the video.

FYI we will of had this out hours ago, but IMAGiNE team got to sleep too.





================================== 
http://thepiratebay.org/user/hiest
==================================





Screen Shots:

 
http://www.grinshare.com/img/MEIFV5.png
 
http://www.grinshare.com/img/I3SZ5W.png
 
http://www.grinshare.com/img/VW24J1.png
 
http://www.grinshare.com/img/2XHY0E.png
